<?xml version="1.0" encoding="UTF-8" standalone="no"?>
<svg
   xmlns:osb="http://www.openswatchbook.org/uri/2009/osb"
   xmlns:dc="http://purl.org/dc/elements/1.1/"
   xmlns:cc="http://creativecommons.org/ns#"
   xmlns:rdf="http://www.w3.org/1999/02/22-rdf-syntax-ns#"
   xmlns:svg="http://www.w3.org/2000/svg"
   xmlns="http://www.w3.org/2000/svg"
   xmlns:sodipodi="http://sodipodi.sourceforge.net/DTD/sodipodi-0.dtd"
   xmlns:inkscape="http://www.inkscape.org/namespaces/inkscape"
   inkscape:export-ydpi="135.00439"
   inkscape:export-xdpi="135.00439"
   inkscape:export-filename="/home/noahstanford/Pictures/drawings/inkscape work/rainbow_lines1920_by_1080.png"
   sodipodi:docname="rainbow_lines.svg"
   inkscape:version="1.0 (4035a4fb49, 2020-05-01)"
   id="svg8"
   version="1.1"
   viewBox="0 0 361.42082 203.20001"
   height="768"
   width="1366">
  <defs
     id="defs2">
    <linearGradient
       osb:paint="solid"
       id="linearGradient2945">
      <stop
         id="stop2943"
         offset="0"
         style="stop-color:#232323;stop-opacity:1;" />
    </linearGradient>
    <linearGradient
       osb:paint="solid"
       id="linearGradient2939">
      <stop
         id="stop2937"
         offset="0"
         style="stop-color:#424242;stop-opacity:1;" />
    </linearGradient>
    <linearGradient
       osb:paint="solid"
       id="linearGradient2927">
      <stop
         id="stop2925"
         offset="0"
         style="stop-color:#ffff00;stop-opacity:1;" />
    </linearGradient>
    <linearGradient
       osb:paint="solid"
       id="linearGradient2921">
      <stop
         id="stop2919"
         offset="0"
         style="stop-color:#ff6800;stop-opacity:1;" />
    </linearGradient>
    <linearGradient
       osb:paint="solid"
       id="linearGradient2915">
      <stop
         id="stop2913"
         offset="0"
         style="stop-color:#ff0000;stop-opacity:1;" />
    </linearGradient>
    <linearGradient
       osb:paint="solid"
       id="linearGradient2909">
      <stop
         id="stop2907"
         offset="0"
         style="stop-color:#ad00ff;stop-opacity:1;" />
    </linearGradient>
    <linearGradient
       osb:paint="solid"
       id="linearGradient2903">
      <stop
         id="stop2901"
         offset="0"
         style="stop-color:#00a2ff;stop-opacity:1;" />
    </linearGradient>
    <linearGradient
       osb:paint="solid"
       id="linearGradient2897">
      <stop
         id="stop2895"
         offset="0"
         style="stop-color:#00ff00;stop-opacity:1;" />
    </linearGradient>
    <linearGradient
       osb:paint="solid"
       id="linearGradient2783">
      <stop
         id="stop2781"
         offset="0"
         style="stop-color:#565656;stop-opacity:1;" />
    </linearGradient>
    <clipPath
       id="clipPath5929"
       clipPathUnits="userSpaceOnUse">
      <rect
         transform="rotate(45)"
         y="-333.03821"
         x="-333.03156"
         height="0.0076799998"
         width="0.01366"
         id="rect5931"
         style="opacity:1;fill:#ff0000;fill-opacity:1;fill-rule:nonzero;stroke:none;stroke-width:0.00000424;stroke-linecap:round;stroke-miterlimit:4;stroke-dasharray:none;stroke-opacity:1" />
    </clipPath>
  </defs>
  <sodipodi:namedview
     inkscape:document-rotation="0"
     inkscape:lockguides="true"
     inkscape:window-maximized="0"
     inkscape:window-y="320"
     inkscape:window-x="0"
     inkscape:window-height="427"
     inkscape:window-width="1366"
     inkscape:guide-bbox="true"
     showguides="true"
     inkscape:pagecheckerboard="true"
     width="1122.5197px"
     units="px"
     showgrid="false"
     inkscape:current-layer="layer1"
     inkscape:document-units="px"
     inkscape:cy="-135.79303"
     inkscape:cx="826.61422"
     inkscape:zoom="0.25"
     inkscape:pageshadow="2"
     inkscape:pageopacity="0.0"
     borderopacity="1.0"
     bordercolor="#666666"
     pagecolor="#ffffff"
     id="base" />
  <metadata
     id="metadata5">
    <rdf:RDF>
      <cc:Work
         rdf:about="">
        <dc:format>image/svg+xml</dc:format>
        <dc:type
           rdf:resource="http://purl.org/dc/dcmitype/StillImage" />
        <dc:title></dc:title>
        <cc:license
           rdf:resource="http://creativecommons.org/licenses/by-sa/4.0/" />
      </cc:Work>
      <cc:License
         rdf:about="http://creativecommons.org/licenses/by-sa/4.0/">
        <cc:permits
           rdf:resource="http://creativecommons.org/ns#Reproduction" />
        <cc:permits
           rdf:resource="http://creativecommons.org/ns#Distribution" />
        <cc:requires
           rdf:resource="http://creativecommons.org/ns#Notice" />
        <cc:requires
           rdf:resource="http://creativecommons.org/ns#Attribution" />
        <cc:permits
           rdf:resource="http://creativecommons.org/ns#DerivativeWorks" />
        <cc:requires
           rdf:resource="http://creativecommons.org/ns#ShareAlike" />
      </cc:License>
    </rdf:RDF>
  </metadata>
  <g
     inkscape:label="Layer 2"
     id="layer2"
     inkscape:groupmode="layer">
    <g
       clip-path="url(#clipPath5929)"
       transform="matrix(-18708.867,-18708.867,-18708.867,18708.867,-8811098.5,8811636)"
       id="g5843"
       style="display:inline;opacity:1">
      <path
         inkscape:connector-curvature="0"
         id="rect853"
         d="m -0.00686956,-470.98257 c 0.00820742,0 0.01641484,0 0.02462226,0 0,8.5e-4 0,0.002 0,0.003 -0.00820742,0 -0.01641484,0 -0.02462226,0 0,-8.5e-4 0,-0.002 0,-0.003 z"
         style="opacity:1;fill:#ff0000;fill-opacity:1;fill-rule:nonzero;stroke:none;stroke-width:0.00000806;stroke-linecap:round;stroke-miterlimit:4;stroke-dasharray:none;stroke-opacity:1" />
      <path
         inkscape:connector-curvature="0"
         id="rect2086"
         d="m -0.00686956,-470.98001 c 0.00820742,0 0.01641484,0 0.02462226,0 0,8.5e-4 0,0.002 0,0.003 -0.00820742,0 -0.01641484,0 -0.02462226,0 0,-8.6e-4 0,-0.002 0,-0.003 z"
         style="opacity:1;fill:#ff6800;fill-opacity:1;fill-rule:nonzero;stroke:none;stroke-width:0.00000806;stroke-linecap:round;stroke-miterlimit:4;stroke-dasharray:none;stroke-opacity:1" />
      <path
         inkscape:connector-curvature="0"
         id="rect2088"
         d="m -0.00686956,-470.97745 c 0.00820742,0 0.01641484,0 0.02462226,0 0,8.6e-4 0,0.002 0,0.003 -0.00820742,0 -0.01641484,0 -0.02462226,0 0,-8.6e-4 0,-0.002 0,-0.003 z"
         style="opacity:1;fill:#ffea00;fill-opacity:1;fill-rule:nonzero;stroke:none;stroke-width:0.00000806;stroke-linecap:round;stroke-miterlimit:4;stroke-dasharray:none;stroke-opacity:1" />
      <path
         inkscape:connector-curvature="0"
         id="rect2090"
         d="m -0.00686956,-470.97488 c 0.00820742,0 0.01641484,0 0.02462226,0 0,8.5e-4 0,0.002 0,0.003 -0.00820742,0 -0.01641484,0 -0.02462226,0 0,-8.5e-4 0,-0.002 0,-0.003 z"
         style="opacity:1;fill:#56ff00;fill-opacity:1;fill-rule:nonzero;stroke:none;stroke-width:0.00000806;stroke-linecap:round;stroke-miterlimit:4;stroke-dasharray:none;stroke-opacity:1" />
      <path
         inkscape:connector-curvature="0"
         id="rect2092"
         d="m -0.00686956,-470.97232 c 0.00820742,0 0.01641484,0 0.02462226,0 0,8.6e-4 0,0.002 0,0.003 -0.00820742,0 -0.01641484,0 -0.02462226,0 0,-8.6e-4 0,-0.002 0,-0.003 z"
         style="opacity:1;fill:#00a2ff;fill-opacity:1;fill-rule:nonzero;stroke:none;stroke-width:0.00000806;stroke-linecap:round;stroke-miterlimit:4;stroke-dasharray:none;stroke-opacity:1" />
      <path
         inkscape:connector-curvature="0"
         id="rect2094"
         d="m -0.00686956,-470.96976 c 0.00820742,0 0.01641484,0 0.02462226,0 0,8.6e-4 0,0.002 0,0.003 -0.00820742,0 -0.01641484,0 -0.02462226,0 0,-8.6e-4 0,-0.002 0,-0.003 z"
         style="opacity:1;fill:#ad00ff;fill-opacity:1;fill-rule:nonzero;stroke:none;stroke-width:0.00000806;stroke-linecap:round;stroke-miterlimit:4;stroke-dasharray:none;stroke-opacity:1" />
      <path
         inkscape:connector-curvature="0"
         id="rect2108"
         d="m -0.00686956,-470.9826 c 9.6134e-4,0 0.00192267,0 0.00288401,0 0,0.005 0,0.0103 0,0.0154 -9.6134e-4,0 -0.00192267,0 -0.00288401,0 0,-0.005 0,-0.0103 0,-0.0154 z"
         style="opacity:1;fill:#1e1e1e;fill-opacity:1;fill-rule:nonzero;stroke:none;stroke-width:0.00001131;stroke-linecap:round;stroke-miterlimit:4;stroke-dasharray:none;stroke-opacity:1" />
      <path
         inkscape:connector-curvature="0"
         id="rect2408"
         d="m -0.0038178,-470.9826 c 9.6133e-4,0 0.00192267,0 0.00288401,0 0,0.005 0,0.0103 0,0.0154 -9.6134e-4,0 -0.00192268,0 -0.00288401,0 0,-0.005 0,-0.0103 0,-0.0154 z"
         style="opacity:1;fill:#1e1e1e;fill-opacity:1;fill-rule:nonzero;stroke:none;stroke-width:0.00001131;stroke-linecap:round;stroke-miterlimit:4;stroke-dasharray:none;stroke-opacity:1" />
      <path
         inkscape:connector-curvature="0"
         id="rect2410"
         d="m -7.3552737e-4,-470.9826 c 9.613377e-4,0 0.001922677,0 0.002884017,0 0,0.005 0,0.0103 0,0.0154 -9.6134e-4,0 -0.00192268,0 -0.002884017,0 0,-0.005 0,-0.0103 0,-0.0154 z"
         style="opacity:1;fill:#1e1e1e;fill-opacity:1;fill-rule:nonzero;stroke:none;stroke-width:0.00001131;stroke-linecap:round;stroke-miterlimit:4;stroke-dasharray:none;stroke-opacity:1" />
      <path
         inkscape:connector-curvature="0"
         id="rect2412"
         d="m 0.00231623,-470.9826 c 9.6134e-4,0 0.00192268,0 0.00288401,0 0,0.005 0,0.0103 0,0.0154 -9.6133e-4,0 -0.00192267,0 -0.00288401,0 0,-0.005 0,-0.0103 0,-0.0154 z"
         style="opacity:1;fill:#1e1e1e;fill-opacity:1;fill-rule:nonzero;stroke:none;stroke-width:0.00001131;stroke-linecap:round;stroke-miterlimit:4;stroke-dasharray:none;stroke-opacity:1" />
      <path
         inkscape:connector-curvature="0"
         id="rect2414"
         d="m 0.00536799,-470.9826 c 9.6134e-4,0 0.00192267,0 0.00288401,0 0,0.005 0,0.0103 0,0.0154 -9.6134e-4,0 -0.00192267,0 -0.00288401,0 0,-0.005 0,-0.0103 0,-0.0154 z"
         style="opacity:1;fill:#1e1e1e;fill-opacity:1;fill-rule:nonzero;stroke:none;stroke-width:0.00001131;stroke-linecap:round;stroke-miterlimit:4;stroke-dasharray:none;stroke-opacity:1" />
      <path
         inkscape:connector-curvature="0"
         id="rect2416"
         d="m 0.00845026,-470.9826 c 9.6134e-4,0 0.00192268,0 0.00288402,0 0,0.005 0,0.0103 0,0.0154 -9.6134e-4,0 -0.00192268,0 -0.00288402,0 0,-0.005 0,-0.0103 0,-0.0154 z"
         style="opacity:1;fill:#1e1e1e;fill-opacity:1;fill-rule:nonzero;stroke:none;stroke-width:0.00001131;stroke-linecap:round;stroke-miterlimit:4;stroke-dasharray:none;stroke-opacity:1" />
      <path
         inkscape:connector-curvature="0"
         id="rect2418"
         d="m 0.01150202,-470.9826 c 9.6134e-4,0 0.0019227,0 0.002884,0 0,0.005 0,0.0103 0,0.0154 -9.6133e-4,0 -0.0019227,0 -0.002884,0 0,-0.005 0,-0.0103 0,-0.0154 z"
         style="opacity:1;fill:#1e1e1e;fill-opacity:1;fill-rule:nonzero;stroke:none;stroke-width:0.00001131;stroke-linecap:round;stroke-miterlimit:4;stroke-dasharray:none;stroke-opacity:1" />
      <path
         inkscape:connector-curvature="0"
         id="rect2422"
         d="m 0.01763606,-470.9826 c 9.6133e-4,0 0.0019227,0 0.002884,0 0,0.005 0,0.0103 0,0.0154 -9.6134e-4,0 -0.0019227,0 -0.002884,0 0,-0.005 0,-0.0103 0,-0.0154 z"
         style="opacity:1;fill:#1e1e1e;fill-opacity:1;fill-rule:nonzero;stroke:none;stroke-width:0.00001131;stroke-linecap:round;stroke-miterlimit:4;stroke-dasharray:none;stroke-opacity:1" />
      <path
         inkscape:connector-curvature="0"
         id="rect5472"
         d="m 0.01150202,-470.9826 c 9.6134e-4,0 0.0019227,0 0.002884,0 0,0.005 0,0.0103 0,0.0154 -9.6133e-4,0 -0.0019227,0 -0.002884,0 0,-0.005 0,-0.0103 0,-0.0154 z"
         style="opacity:1;fill:#1e1e1e;fill-opacity:1;fill-rule:nonzero;stroke:none;stroke-width:0.00001131;stroke-linecap:round;stroke-miterlimit:4;stroke-dasharray:none;stroke-opacity:1" />
      <path
         inkscape:connector-curvature="0"
         id="rect5825"
         d="m 0.01454873,-470.9826 c 9.6134e-4,0 0.0019227,0 0.002884,0 0,0.005 0,0.0103 0,0.0154 -9.6133e-4,0 -0.0019227,0 -0.002884,0 0,-0.005 0,-0.0103 0,-0.0154 z"
         style="opacity:1;fill:#1e1e1e;fill-opacity:1;fill-rule:nonzero;stroke:none;stroke-width:0.00001131;stroke-linecap:round;stroke-miterlimit:4;stroke-dasharray:none;stroke-opacity:1" />
    </g>
  </g>
  <g
     style="opacity:1"
     transform="translate(0,-93.800007)"
     id="layer1"
     inkscape:groupmode="layer"
     inkscape:label="Layer 1">
    <flowRoot
       transform="matrix(0.26458333,0,0,0.26458333,6.5572449,98.918784)"
       style="font-style:normal;font-variant:normal;font-weight:normal;font-stretch:normal;font-size:40px;line-height:1.25;font-family:Ubuntu;-inkscape-font-specification:Ubuntu;letter-spacing:0px;word-spacing:0px;fill:#000000;fill-opacity:1;stroke:none"
       id="flowRoot917"
       xml:space="preserve"><flowRegion
         style="font-style:normal;font-variant:normal;font-weight:normal;font-stretch:normal;font-family:Ubuntu;-inkscape-font-specification:Ubuntu"
         id="flowRegion919"><rect
           style="font-style:normal;font-variant:normal;font-weight:normal;font-stretch:normal;font-family:Ubuntu;-inkscape-font-specification:Ubuntu"
           y="341.57144"
           x="633.57141"
           height="52.857128"
           width="49.999981"
           id="rect921" /></flowRegion><flowPara
         style="font-style:italic;font-variant:normal;font-weight:500;font-stretch:normal;font-family:Roboto;-inkscape-font-specification:'Roboto Medium Italic';fill:#686868;fill-opacity:1"
         id="flowPara923">CA</flowPara></flowRoot>
    <text
       id="text1139-3"
       y="270.3533"
       x="1424.4894"
       style="font-style:normal;font-variant:normal;font-weight:normal;font-stretch:normal;font-size:9.55422px;line-height:11.9428px;font-family:Ubuntu;-inkscape-font-specification:Ubuntu;letter-spacing:0px;word-spacing:0px;opacity:1;fill:#6a6a6a;fill-opacity:1;stroke:none;stroke-width:0.358283"
       xml:space="preserve"><tspan
         style="text-align:center;text-anchor:middle;stroke-width:0.358283"
         id="tspan1137-6"
         y="270.3533"
         x="321.74213"
         sodipodi:role="line"><tspan
           id="tspan1135-7"
           style="font-style:normal;font-variant:normal;font-weight:300;font-stretch:normal;line-height:11.9428px;font-family:Roboto;-inkscape-font-specification:'Roboto Light';text-align:center;text-anchor:middle;fill:#6a6a6a;fill-opacity:1;stroke-width:0.358283"
           y="270.3533"
           x="321.74213"><tspan
             id="tspan2757"
             style="text-align:center;text-anchor:middle;fill:#ff0000;fill-opacity:1">C</tspan><tspan
             id="tspan2759"
             style="text-align:center;text-anchor:middle;fill:#ff6800;fill-opacity:1">o</tspan><tspan
             id="tspan2761"
             style="text-align:center;text-anchor:middle;fill:#ffea00;fill-opacity:1">r</tspan><tspan
             id="tspan2763"
             style="text-align:center;text-anchor:middle;fill:#56ff00;fill-opacity:1">r</tspan><tspan
             id="tspan2765"
             style="text-align:center;text-anchor:middle;fill:#00a2ff;fill-opacity:1">u</tspan><tspan
             id="tspan2767"
             style="text-align:center;text-anchor:middle;fill:#ad00ff;fill-opacity:1">p</tspan><tspan
             id="tspan2769"
             style="text-align:center;text-anchor:middle;fill:#ff0000;fill-opacity:1">t</tspan><tspan
             id="tspan2773"
             style="text-align:center;text-anchor:middle;fill:#ff6800;fill-opacity:1">e</tspan><tspan
             id="tspan2967"
             style="text-align:center;text-anchor:middle;fill:#ffea00;fill-opacity:1">d</tspan><tspan
             id="tspan2969"
             style="text-align:center;text-anchor:middle;fill:#56ff00;fill-opacity:1">A</tspan><tspan
             id="tspan2971"
             style="text-align:center;text-anchor:middle;fill:#00a2ff;fill-opacity:1">r</tspan><tspan
             id="tspan2973"
             style="text-align:center;text-anchor:middle;fill:#ad00ff;fill-opacity:1">k</tspan></tspan></tspan></text>
  </g>
</svg>
