<?xml version="1.0" encoding="UTF-8" standalone="no"?>
<!-- Created with Inkscape (http://www.inkscape.org/) -->

<svg
   xmlns:osb="http://www.openswatchbook.org/uri/2009/osb"
   xmlns:dc="http://purl.org/dc/elements/1.1/"
   xmlns:cc="http://creativecommons.org/ns#"
   xmlns:rdf="http://www.w3.org/1999/02/22-rdf-syntax-ns#"
   xmlns:svg="http://www.w3.org/2000/svg"
   xmlns="http://www.w3.org/2000/svg"
   xmlns:sodipodi="http://sodipodi.sourceforge.net/DTD/sodipodi-0.dtd"
   xmlns:inkscape="http://www.inkscape.org/namespaces/inkscape"
   width="1366"
   height="768"
   viewBox="0 0 361.42082 203.20001"
   version="1.1"
   id="svg8"
   inkscape:version="0.92.4 (5da689c313, 2019-01-14)"
   sodipodi:docname="rainbow_lines.svg"
   inkscape:export-filename="/home/noahstanford/Pictures/drawings/inkscape work/rainbow_lines1920_by_1080.png"
   inkscape:export-xdpi="135.00439"
   inkscape:export-ydpi="135.00439">
  <defs
     id="defs2">
    <linearGradient
       id="linearGradient2945"
       osb:paint="solid">
      <stop
         style="stop-color:#232323;stop-opacity:1;"
         offset="0"
         id="stop2943" />
    </linearGradient>
    <linearGradient
       id="linearGradient2939"
       osb:paint="solid">
      <stop
         style="stop-color:#424242;stop-opacity:1;"
         offset="0"
         id="stop2937" />
    </linearGradient>
    <linearGradient
       id="linearGradient2927"
       osb:paint="solid">
      <stop
         style="stop-color:#ffff00;stop-opacity:1;"
         offset="0"
         id="stop2925" />
    </linearGradient>
    <linearGradient
       id="linearGradient2921"
       osb:paint="solid">
      <stop
         style="stop-color:#ff6800;stop-opacity:1;"
         offset="0"
         id="stop2919" />
    </linearGradient>
    <linearGradient
       id="linearGradient2915"
       osb:paint="solid">
      <stop
         style="stop-color:#ff0000;stop-opacity:1;"
         offset="0"
         id="stop2913" />
    </linearGradient>
    <linearGradient
       id="linearGradient2909"
       osb:paint="solid">
      <stop
         style="stop-color:#ad00ff;stop-opacity:1;"
         offset="0"
         id="stop2907" />
    </linearGradient>
    <linearGradient
       id="linearGradient2903"
       osb:paint="solid">
      <stop
         style="stop-color:#00a2ff;stop-opacity:1;"
         offset="0"
         id="stop2901" />
    </linearGradient>
    <linearGradient
       id="linearGradient2897"
       osb:paint="solid">
      <stop
         style="stop-color:#00ff00;stop-opacity:1;"
         offset="0"
         id="stop2895" />
    </linearGradient>
    <linearGradient
       id="linearGradient2783"
       osb:paint="solid">
      <stop
         style="stop-color:#565656;stop-opacity:1;"
         offset="0"
         id="stop2781" />
    </linearGradient>
    <clipPath
       clipPathUnits="userSpaceOnUse"
       id="clipPath5929">
      <rect
         style="opacity:1;fill:#ff0000;fill-opacity:1;fill-rule:nonzero;stroke:none;stroke-width:0.00000424;stroke-linecap:round;stroke-miterlimit:4;stroke-dasharray:none;stroke-opacity:1"
         id="rect5931"
         width="0.01366"
         height="0.0076799998"
         x="-333.03156"
         y="-333.03821"
         transform="rotate(45)" />
    </clipPath>
  </defs>
  <sodipodi:namedview
     id="base"
     pagecolor="#ffffff"
     bordercolor="#666666"
     borderopacity="1.0"
     inkscape:pageopacity="0.0"
     inkscape:pageshadow="2"
     inkscape:zoom="0.25"
     inkscape:cx="826.61422"
     inkscape:cy="-135.79303"
     inkscape:document-units="px"
     inkscape:current-layer="layer1"
     showgrid="false"
     units="px"
     width="1122.5197px"
     inkscape:pagecheckerboard="true"
     showguides="true"
     inkscape:guide-bbox="true"
     inkscape:window-width="1366"
     inkscape:window-height="700"
     inkscape:window-x="0"
     inkscape:window-y="32"
     inkscape:window-maximized="1"
     inkscape:lockguides="true" />
  <metadata
     id="metadata5">
    <rdf:RDF>
      <cc:Work
         rdf:about="">
        <dc:format>image/svg+xml</dc:format>
        <dc:type
           rdf:resource="http://purl.org/dc/dcmitype/StillImage" />
        <dc:title />
      </cc:Work>
    </rdf:RDF>
  </metadata>
  <g
     inkscape:groupmode="layer"
     id="layer2"
     inkscape:label="Layer 2">
    <g
       style="display:inline;opacity:1"
       id="g5843"
       transform="matrix(-18708.867,-18708.867,-18708.867,18708.867,-8811098.5,8811636)"
       clip-path="url(#clipPath5929)">
      <path
         style="opacity:1;fill:#ff0000;fill-opacity:1;fill-rule:nonzero;stroke:none;stroke-width:0.00000806;stroke-linecap:round;stroke-miterlimit:4;stroke-dasharray:none;stroke-opacity:1"
         d="m -0.00686956,-470.98257 c 0.00820742,0 0.01641484,0 0.02462226,0 0,8.5e-4 0,0.002 0,0.003 -0.00820742,0 -0.01641484,0 -0.02462226,0 0,-8.5e-4 0,-0.002 0,-0.003 z"
         id="rect853"
         inkscape:connector-curvature="0" />
      <path
         style="opacity:1;fill:#ff6800;fill-opacity:1;fill-rule:nonzero;stroke:none;stroke-width:0.00000806;stroke-linecap:round;stroke-miterlimit:4;stroke-dasharray:none;stroke-opacity:1"
         d="m -0.00686956,-470.98001 c 0.00820742,0 0.01641484,0 0.02462226,0 0,8.5e-4 0,0.002 0,0.003 -0.00820742,0 -0.01641484,0 -0.02462226,0 0,-8.6e-4 0,-0.002 0,-0.003 z"
         id="rect2086"
         inkscape:connector-curvature="0" />
      <path
         style="opacity:1;fill:#ffea00;fill-opacity:1;fill-rule:nonzero;stroke:none;stroke-width:0.00000806;stroke-linecap:round;stroke-miterlimit:4;stroke-dasharray:none;stroke-opacity:1"
         d="m -0.00686956,-470.97745 c 0.00820742,0 0.01641484,0 0.02462226,0 0,8.6e-4 0,0.002 0,0.003 -0.00820742,0 -0.01641484,0 -0.02462226,0 0,-8.6e-4 0,-0.002 0,-0.003 z"
         id="rect2088"
         inkscape:connector-curvature="0" />
      <path
         style="opacity:1;fill:#56ff00;fill-opacity:1;fill-rule:nonzero;stroke:none;stroke-width:0.00000806;stroke-linecap:round;stroke-miterlimit:4;stroke-dasharray:none;stroke-opacity:1"
         d="m -0.00686956,-470.97488 c 0.00820742,0 0.01641484,0 0.02462226,0 0,8.5e-4 0,0.002 0,0.003 -0.00820742,0 -0.01641484,0 -0.02462226,0 0,-8.5e-4 0,-0.002 0,-0.003 z"
         id="rect2090"
         inkscape:connector-curvature="0" />
      <path
         style="opacity:1;fill:#00a2ff;fill-opacity:1;fill-rule:nonzero;stroke:none;stroke-width:0.00000806;stroke-linecap:round;stroke-miterlimit:4;stroke-dasharray:none;stroke-opacity:1"
         d="m -0.00686956,-470.97232 c 0.00820742,0 0.01641484,0 0.02462226,0 0,8.6e-4 0,0.002 0,0.003 -0.00820742,0 -0.01641484,0 -0.02462226,0 0,-8.6e-4 0,-0.002 0,-0.003 z"
         id="rect2092"
         inkscape:connector-curvature="0" />
      <path
         style="opacity:1;fill:#ad00ff;fill-opacity:1;fill-rule:nonzero;stroke:none;stroke-width:0.00000806;stroke-linecap:round;stroke-miterlimit:4;stroke-dasharray:none;stroke-opacity:1"
         d="m -0.00686956,-470.96976 c 0.00820742,0 0.01641484,0 0.02462226,0 0,8.6e-4 0,0.002 0,0.003 -0.00820742,0 -0.01641484,0 -0.02462226,0 0,-8.6e-4 0,-0.002 0,-0.003 z"
         id="rect2094"
         inkscape:connector-curvature="0" />
      <path
         style="opacity:1;fill:#1e1e1e;fill-opacity:1;fill-rule:nonzero;stroke:none;stroke-width:0.00001131;stroke-linecap:round;stroke-miterlimit:4;stroke-dasharray:none;stroke-opacity:1"
         d="m -0.00686956,-470.9826 c 9.6134e-4,0 0.00192267,0 0.00288401,0 0,0.005 0,0.0103 0,0.0154 -9.6134e-4,0 -0.00192267,0 -0.00288401,0 0,-0.005 0,-0.0103 0,-0.0154 z"
         id="rect2108"
         inkscape:connector-curvature="0" />
      <path
         style="opacity:1;fill:#1e1e1e;fill-opacity:1;fill-rule:nonzero;stroke:none;stroke-width:0.00001131;stroke-linecap:round;stroke-miterlimit:4;stroke-dasharray:none;stroke-opacity:1"
         d="m -0.0038178,-470.9826 c 9.6133e-4,0 0.00192267,0 0.00288401,0 0,0.005 0,0.0103 0,0.0154 -9.6134e-4,0 -0.00192268,0 -0.00288401,0 0,-0.005 0,-0.0103 0,-0.0154 z"
         id="rect2408"
         inkscape:connector-curvature="0" />
      <path
         style="opacity:1;fill:#1e1e1e;fill-opacity:1;fill-rule:nonzero;stroke:none;stroke-width:0.00001131;stroke-linecap:round;stroke-miterlimit:4;stroke-dasharray:none;stroke-opacity:1"
         d="m -7.3552737e-4,-470.9826 c 9.613377e-4,0 0.001922677,0 0.002884017,0 0,0.005 0,0.0103 0,0.0154 -9.6134e-4,0 -0.00192268,0 -0.002884017,0 0,-0.005 0,-0.0103 0,-0.0154 z"
         id="rect2410"
         inkscape:connector-curvature="0" />
      <path
         style="opacity:1;fill:#1e1e1e;fill-opacity:1;fill-rule:nonzero;stroke:none;stroke-width:0.00001131;stroke-linecap:round;stroke-miterlimit:4;stroke-dasharray:none;stroke-opacity:1"
         d="m 0.00231623,-470.9826 c 9.6134e-4,0 0.00192268,0 0.00288401,0 0,0.005 0,0.0103 0,0.0154 -9.6133e-4,0 -0.00192267,0 -0.00288401,0 0,-0.005 0,-0.0103 0,-0.0154 z"
         id="rect2412"
         inkscape:connector-curvature="0" />
      <path
         style="opacity:1;fill:#1e1e1e;fill-opacity:1;fill-rule:nonzero;stroke:none;stroke-width:0.00001131;stroke-linecap:round;stroke-miterlimit:4;stroke-dasharray:none;stroke-opacity:1"
         d="m 0.00536799,-470.9826 c 9.6134e-4,0 0.00192267,0 0.00288401,0 0,0.005 0,0.0103 0,0.0154 -9.6134e-4,0 -0.00192267,0 -0.00288401,0 0,-0.005 0,-0.0103 0,-0.0154 z"
         id="rect2414"
         inkscape:connector-curvature="0" />
      <path
         style="opacity:1;fill:#1e1e1e;fill-opacity:1;fill-rule:nonzero;stroke:none;stroke-width:0.00001131;stroke-linecap:round;stroke-miterlimit:4;stroke-dasharray:none;stroke-opacity:1"
         d="m 0.00845026,-470.9826 c 9.6134e-4,0 0.00192268,0 0.00288402,0 0,0.005 0,0.0103 0,0.0154 -9.6134e-4,0 -0.00192268,0 -0.00288402,0 0,-0.005 0,-0.0103 0,-0.0154 z"
         id="rect2416"
         inkscape:connector-curvature="0" />
      <path
         style="opacity:1;fill:#1e1e1e;fill-opacity:1;fill-rule:nonzero;stroke:none;stroke-width:0.00001131;stroke-linecap:round;stroke-miterlimit:4;stroke-dasharray:none;stroke-opacity:1"
         d="m 0.01150202,-470.9826 c 9.6134e-4,0 0.0019227,0 0.002884,0 0,0.005 0,0.0103 0,0.0154 -9.6133e-4,0 -0.0019227,0 -0.002884,0 0,-0.005 0,-0.0103 0,-0.0154 z"
         id="rect2418"
         inkscape:connector-curvature="0" />
      <path
         style="opacity:1;fill:#1e1e1e;fill-opacity:1;fill-rule:nonzero;stroke:none;stroke-width:0.00001131;stroke-linecap:round;stroke-miterlimit:4;stroke-dasharray:none;stroke-opacity:1"
         d="m 0.01763606,-470.9826 c 9.6133e-4,0 0.0019227,0 0.002884,0 0,0.005 0,0.0103 0,0.0154 -9.6134e-4,0 -0.0019227,0 -0.002884,0 0,-0.005 0,-0.0103 0,-0.0154 z"
         id="rect2422"
         inkscape:connector-curvature="0" />
      <path
         style="opacity:1;fill:#1e1e1e;fill-opacity:1;fill-rule:nonzero;stroke:none;stroke-width:0.00001131;stroke-linecap:round;stroke-miterlimit:4;stroke-dasharray:none;stroke-opacity:1"
         d="m 0.01150202,-470.9826 c 9.6134e-4,0 0.0019227,0 0.002884,0 0,0.005 0,0.0103 0,0.0154 -9.6133e-4,0 -0.0019227,0 -0.002884,0 0,-0.005 0,-0.0103 0,-0.0154 z"
         id="rect5472"
         inkscape:connector-curvature="0" />
      <path
         style="opacity:1;fill:#1e1e1e;fill-opacity:1;fill-rule:nonzero;stroke:none;stroke-width:0.00001131;stroke-linecap:round;stroke-miterlimit:4;stroke-dasharray:none;stroke-opacity:1"
         d="m 0.01454873,-470.9826 c 9.6134e-4,0 0.0019227,0 0.002884,0 0,0.005 0,0.0103 0,0.0154 -9.6133e-4,0 -0.0019227,0 -0.002884,0 0,-0.005 0,-0.0103 0,-0.0154 z"
         id="rect5825"
         inkscape:connector-curvature="0" />
    </g>
  </g>
  <g
     inkscape:label="Layer 1"
     inkscape:groupmode="layer"
     id="layer1"
     transform="translate(0,-93.800007)"
     style="opacity:1">
    <flowRoot
       xml:space="preserve"
       id="flowRoot917"
       style="font-style:normal;font-variant:normal;font-weight:normal;font-stretch:normal;font-size:40px;line-height:1.25;font-family:Ubuntu;-inkscape-font-specification:Ubuntu;letter-spacing:0px;word-spacing:0px;fill:#000000;fill-opacity:1;stroke:none"
       transform="matrix(0.26458333,0,0,0.26458333,6.5572449,98.918784)"><flowRegion
         id="flowRegion919"
         style="font-style:normal;font-variant:normal;font-weight:normal;font-stretch:normal;font-family:Ubuntu;-inkscape-font-specification:Ubuntu"><rect
           id="rect921"
           width="49.999981"
           height="52.857128"
           x="633.57141"
           y="341.57144"
           style="font-style:normal;font-variant:normal;font-weight:normal;font-stretch:normal;font-family:Ubuntu;-inkscape-font-specification:Ubuntu" /></flowRegion><flowPara
         id="flowPara923"
         style="font-style:italic;font-variant:normal;font-weight:500;font-stretch:normal;font-family:Roboto;-inkscape-font-specification:'Roboto Medium Italic';fill:#686868;fill-opacity:1">CA</flowPara></flowRoot>    <text
       xml:space="preserve"
       style="font-style:normal;font-variant:normal;font-weight:normal;font-stretch:normal;font-size:9.55422211px;line-height:11.94277763px;font-family:Ubuntu;-inkscape-font-specification:Ubuntu;letter-spacing:0px;word-spacing:0px;opacity:1;fill:#6a6a6a;fill-opacity:1;stroke:none;stroke-width:0.35828331"
       x="1424.4894"
       y="270.3533"
       id="text1139-3"><tspan
         sodipodi:role="line"
         x="321.74213"
         y="270.3533"
         id="tspan1137-6"
         style="text-align:center;text-anchor:middle;stroke-width:0.35828331"><tspan
           x="321.74213"
           y="270.3533"
           style="font-style:normal;font-variant:normal;font-weight:300;font-stretch:normal;line-height:11.94277763px;font-family:Roboto;-inkscape-font-specification:'Roboto Light';text-align:center;text-anchor:middle;fill:#6a6a6a;fill-opacity:1;stroke-width:0.35828331"
           id="tspan1135-7"><tspan
             style="text-align:center;text-anchor:middle;fill:#ff0000;fill-opacity:1"
             id="tspan2757">C</tspan><tspan
             style="text-align:center;text-anchor:middle;fill:#ff6800;fill-opacity:1"
             id="tspan2759">o</tspan><tspan
             style="text-align:center;text-anchor:middle;fill:#ffea00;fill-opacity:1"
             id="tspan2761">r</tspan><tspan
             style="text-align:center;text-anchor:middle;fill:#56ff00;fill-opacity:1"
             id="tspan2763">r</tspan><tspan
             style="text-align:center;text-anchor:middle;fill:#00a2ff;fill-opacity:1"
             id="tspan2765">u</tspan><tspan
             style="text-align:center;text-anchor:middle;fill:#ad00ff;fill-opacity:1"
             id="tspan2767">p</tspan><tspan
             style="text-align:center;text-anchor:middle;fill:#ff0000;fill-opacity:1"
             id="tspan2769">t</tspan><tspan
             style="text-align:center;text-anchor:middle;fill:#ff6800;fill-opacity:1"
             id="tspan2773">e</tspan><tspan
             style="text-align:center;text-anchor:middle;fill:#ffea00;fill-opacity:1"
             id="tspan2967">d</tspan><tspan
             style="text-align:center;text-anchor:middle;fill:#56ff00;fill-opacity:1"
             id="tspan2969">A</tspan><tspan
             style="text-align:center;text-anchor:middle;fill:#00a2ff;fill-opacity:1"
             id="tspan2971">r</tspan><tspan
             style="text-align:center;text-anchor:middle;fill:#ad00ff;fill-opacity:1"
             id="tspan2973">k</tspan></tspan></tspan></text>
  </g>
</svg>
