<?xml version="1.0" encoding="UTF-8" standalone="no"?>
<!-- Created with Inkscape (http://www.inkscape.org/) -->

<svg
   xmlns:osb="http://www.openswatchbook.org/uri/2009/osb"
   xmlns:dc="http://purl.org/dc/elements/1.1/"
   xmlns:cc="http://creativecommons.org/ns#"
   xmlns:rdf="http://www.w3.org/1999/02/22-rdf-syntax-ns#"
   xmlns:svg="http://www.w3.org/2000/svg"
   xmlns="http://www.w3.org/2000/svg"
   xmlns:xlink="http://www.w3.org/1999/xlink"
   xmlns:sodipodi="http://sodipodi.sourceforge.net/DTD/sodipodi-0.dtd"
   xmlns:inkscape="http://www.inkscape.org/namespaces/inkscape"
   width="1366"
   height="768"
   viewBox="0 0 361.42082 203.20001"
   version="1.1"
   id="svg8"
   inkscape:version="0.92.4 (5da689c313, 2019-01-14)"
   sodipodi:docname="rainbow_hexagon_and_lines.svg"
   inkscape:export-filename="/home/noahstanford/Pictures/drawings/inkscape work/rainbow_hexagon_and_lines.png"
   inkscape:export-xdpi="96.000008"
   inkscape:export-ydpi="96.000008"
   enable-background="new">
  <defs
     id="defs2">
    <linearGradient
       id="linearGradient2945"
       osb:paint="solid">
      <stop
         style="stop-color:#232323;stop-opacity:1;"
         offset="0"
         id="stop2943" />
    </linearGradient>
    <linearGradient
       id="linearGradient2939"
       osb:paint="solid">
      <stop
         style="stop-color:#424242;stop-opacity:1;"
         offset="0"
         id="stop2937" />
    </linearGradient>
    <linearGradient
       id="linearGradient2927"
       osb:paint="solid">
      <stop
         style="stop-color:#ffff00;stop-opacity:1;"
         offset="0"
         id="stop2925" />
    </linearGradient>
    <linearGradient
       id="linearGradient2921"
       osb:paint="solid">
      <stop
         style="stop-color:#ff6800;stop-opacity:1;"
         offset="0"
         id="stop2919" />
    </linearGradient>
    <linearGradient
       id="linearGradient2915"
       osb:paint="solid">
      <stop
         style="stop-color:#ff0000;stop-opacity:1;"
         offset="0"
         id="stop2913" />
    </linearGradient>
    <linearGradient
       id="linearGradient2909"
       osb:paint="solid">
      <stop
         style="stop-color:#ad00ff;stop-opacity:1;"
         offset="0"
         id="stop2907" />
    </linearGradient>
    <linearGradient
       id="linearGradient2903"
       osb:paint="solid">
      <stop
         style="stop-color:#00a2ff;stop-opacity:1;"
         offset="0"
         id="stop2901" />
    </linearGradient>
    <linearGradient
       id="linearGradient2897"
       osb:paint="solid">
      <stop
         style="stop-color:#00ff00;stop-opacity:1;"
         offset="0"
         id="stop2895" />
    </linearGradient>
    <linearGradient
       id="linearGradient2783"
       osb:paint="solid">
      <stop
         style="stop-color:#565656;stop-opacity:1;"
         offset="0"
         id="stop2781" />
    </linearGradient>
    <linearGradient
       inkscape:collect="always"
       xlink:href="#linearGradient2783"
       id="linearGradient2785"
       x1="134.88324"
       y1="168.94167"
       x2="226.53759"
       y2="168.94167"
       gradientUnits="userSpaceOnUse"
       gradientTransform="translate(9.8657886e-6,1.217041e-6)" />
    <linearGradient
       inkscape:collect="always"
       xlink:href="#linearGradient2903"
       id="linearGradient2905"
       x1="162.37955"
       y1="154.38958"
       x2="199.04129"
       y2="154.38958"
       gradientUnits="userSpaceOnUse"
       gradientTransform="matrix(-1.40625,0.8118988,-0.8118988,-1.40625,521.51647,258.35038)" />
    <linearGradient
       inkscape:collect="always"
       xlink:href="#linearGradient2909"
       id="linearGradient2911"
       x1="144.04868"
       y1="211.27502"
       x2="180.71042"
       y2="211.27502"
       gradientUnits="userSpaceOnUse"
       gradientTransform="matrix(0,1.6237976,-1.6237976,0,498.00049,-98.03713)" />
    <linearGradient
       inkscape:collect="always"
       xlink:href="#linearGradient2915"
       id="linearGradient2917"
       x1="162.37955"
       y1="154.38958"
       x2="199.04129"
       y2="154.38958"
       gradientUnits="userSpaceOnUse"
       gradientTransform="matrix(-1.40625,0.8118988,-0.8118988,-1.40625,573.07204,228.58476)" />
    <linearGradient
       inkscape:collect="always"
       xlink:href="#linearGradient2921"
       id="linearGradient2923"
       x1="162.37955"
       y1="179.525"
       x2="199.04129"
       y2="179.525"
       gradientUnits="userSpaceOnUse"
       gradientTransform="matrix(0,1.6237976,-1.6237976,0,498.00046,-98.037132)" />
    <linearGradient
       inkscape:collect="always"
       xlink:href="#linearGradient2927"
       id="linearGradient2929"
       x1="162.37955"
       y1="154.38958"
       x2="199.04129"
       y2="154.38958"
       gradientUnits="userSpaceOnUse"
       gradientTransform="matrix(-1.40625,0.8118988,-0.8118988,-1.40625,573.07207,288.11601)" />
    <linearGradient
       inkscape:collect="always"
       xlink:href="#linearGradient2939"
       id="linearGradient2941"
       x1="180.71041"
       y1="208.62917"
       x2="226.53759"
       y2="208.62917"
       gradientUnits="userSpaceOnUse" />
    <linearGradient
       inkscape:collect="always"
       xlink:href="#linearGradient2945"
       id="linearGradient2947"
       x1="134.88324"
       y1="208.62917"
       x2="180.71041"
       y2="208.62917"
       gradientUnits="userSpaceOnUse" />
    <clipPath
       clipPathUnits="userSpaceOnUse"
       id="clipPath5929">
      <rect
         style="opacity:1;fill:#ff0000;fill-opacity:1;fill-rule:nonzero;stroke:none;stroke-width:0.00000424;stroke-linecap:round;stroke-miterlimit:4;stroke-dasharray:none;stroke-opacity:1"
         id="rect5931"
         width="0.01366"
         height="0.0076799998"
         x="-333.03156"
         y="-333.03821"
         transform="rotate(45)" />
    </clipPath>
    <linearGradient
       inkscape:collect="always"
       xlink:href="#linearGradient2915"
       id="linearGradient919"
       gradientUnits="userSpaceOnUse"
       x1="162.37955"
       y1="154.38958"
       x2="199.04129"
       y2="154.38958"
       gradientTransform="matrix(-1.40625,0.8118988,-0.8118988,-1.40625,573.07204,228.58476)" />
    <linearGradient
       inkscape:collect="always"
       xlink:href="#linearGradient2909"
       id="linearGradient922"
       gradientUnits="userSpaceOnUse"
       x1="144.04868"
       y1="211.27502"
       x2="180.71042"
       y2="211.27502"
       gradientTransform="matrix(0,1.6237976,-1.6237976,0,498.00049,-98.03713)" />
  </defs>
  <sodipodi:namedview
     id="base"
     pagecolor="#ffffff"
     bordercolor="#666666"
     borderopacity="1.0"
     inkscape:pageopacity="0.0"
     inkscape:pageshadow="2"
     inkscape:zoom="0.3535534"
     inkscape:cx="665.61386"
     inkscape:cy="76.841884"
     inkscape:document-units="px"
     inkscape:current-layer="layer1"
     showgrid="false"
     units="px"
     width="1122.5197px"
     inkscape:pagecheckerboard="true"
     showguides="false"
     inkscape:guide-bbox="true"
     inkscape:window-width="1366"
     inkscape:window-height="700"
     inkscape:window-x="0"
     inkscape:window-y="32"
     inkscape:window-maximized="1"
     inkscape:lockguides="true"
     scale-x="0.66458" />
  <metadata
     id="metadata5">
    <rdf:RDF>
      <cc:Work
         rdf:about="">
        <dc:format>image/svg+xml</dc:format>
        <dc:type
           rdf:resource="http://purl.org/dc/dcmitype/StillImage" />
        <dc:title></dc:title>
      </cc:Work>
    </rdf:RDF>
  </metadata>
  <g
     inkscape:groupmode="layer"
     id="layer2"
     inkscape:label="Layer 2"
     style="display:inline"
     sodipodi:insensitive="true">
    <g
       style="display:inline;opacity:1"
       id="g5843"
       transform="matrix(-18708.867,-18708.867,-18708.867,18708.867,-8811098.5,8811636)"
       clip-path="url(#clipPath5929)">
      <rect
         y="-470.98257"
         x="-0.0068695606"
         height="0.0025673208"
         width="0.024622262"
         id="rect853"
         style="opacity:1;fill:#ff0000;fill-opacity:1;fill-rule:nonzero;stroke:none;stroke-width:0.00000806;stroke-linecap:round;stroke-miterlimit:4;stroke-dasharray:none;stroke-opacity:1" />
      <rect
         style="opacity:1;fill:#ff6800;fill-opacity:1;fill-rule:nonzero;stroke:none;stroke-width:0.00000806;stroke-linecap:round;stroke-miterlimit:4;stroke-dasharray:none;stroke-opacity:1"
         id="rect2086"
         width="0.024622262"
         height="0.0025673208"
         x="-0.0068695606"
         y="-470.98001" />
      <rect
         y="-470.97745"
         x="-0.0068695606"
         height="0.0025673208"
         width="0.024622262"
         id="rect2088"
         style="opacity:1;fill:#ffea00;fill-opacity:1;fill-rule:nonzero;stroke:none;stroke-width:0.00000806;stroke-linecap:round;stroke-miterlimit:4;stroke-dasharray:none;stroke-opacity:1" />
      <rect
         style="opacity:1;fill:#56ff00;fill-opacity:1;fill-rule:nonzero;stroke:none;stroke-width:0.00000806;stroke-linecap:round;stroke-miterlimit:4;stroke-dasharray:none;stroke-opacity:1"
         id="rect2090"
         width="0.024622262"
         height="0.0025673208"
         x="-0.0068695606"
         y="-470.97488" />
      <rect
         y="-470.97232"
         x="-0.0068695606"
         height="0.0025673208"
         width="0.024622262"
         id="rect2092"
         style="opacity:1;fill:#00a2ff;fill-opacity:1;fill-rule:nonzero;stroke:none;stroke-width:0.00000806;stroke-linecap:round;stroke-miterlimit:4;stroke-dasharray:none;stroke-opacity:1" />
      <rect
         style="opacity:1;fill:#ad00ff;fill-opacity:1;fill-rule:nonzero;stroke:none;stroke-width:0.00000806;stroke-linecap:round;stroke-miterlimit:4;stroke-dasharray:none;stroke-opacity:1"
         id="rect2094"
         width="0.024622262"
         height="0.0025673208"
         x="-0.0068695606"
         y="-470.96976" />
      <rect
         style="opacity:1;fill:#1e1e1e;fill-opacity:1;fill-rule:nonzero;stroke:none;stroke-width:0.00001131;stroke-linecap:round;stroke-miterlimit:4;stroke-dasharray:none;stroke-opacity:1"
         id="rect2108"
         width="0.0028840131"
         height="0.015403925"
         x="-0.0068695606"
         y="-470.9826" />
      <rect
         y="-470.9826"
         x="-0.0038178028"
         height="0.015403925"
         width="0.0028840131"
         id="rect2408"
         style="opacity:1;fill:#1e1e1e;fill-opacity:1;fill-rule:nonzero;stroke:none;stroke-width:0.00001131;stroke-linecap:round;stroke-miterlimit:4;stroke-dasharray:none;stroke-opacity:1" />
      <rect
         style="opacity:1;fill:#1e1e1e;fill-opacity:1;fill-rule:nonzero;stroke:none;stroke-width:0.00001131;stroke-linecap:round;stroke-miterlimit:4;stroke-dasharray:none;stroke-opacity:1"
         id="rect2410"
         width="0.0028840131"
         height="0.015403925"
         x="-0.00073552737"
         y="-470.9826" />
      <rect
         y="-470.9826"
         x="0.0023162304"
         height="0.015403925"
         width="0.0028840131"
         id="rect2412"
         style="opacity:1;fill:#1e1e1e;fill-opacity:1;fill-rule:nonzero;stroke:none;stroke-width:0.00001131;stroke-linecap:round;stroke-miterlimit:4;stroke-dasharray:none;stroke-opacity:1" />
      <rect
         style="opacity:1;fill:#1e1e1e;fill-opacity:1;fill-rule:nonzero;stroke:none;stroke-width:0.00001131;stroke-linecap:round;stroke-miterlimit:4;stroke-dasharray:none;stroke-opacity:1"
         id="rect2414"
         width="0.0028840131"
         height="0.015403925"
         x="0.0053679883"
         y="-470.9826" />
      <rect
         y="-470.9826"
         x="0.0084502641"
         height="0.015403925"
         width="0.0028840131"
         id="rect2416"
         style="opacity:1;fill:#1e1e1e;fill-opacity:1;fill-rule:nonzero;stroke:none;stroke-width:0.00001131;stroke-linecap:round;stroke-miterlimit:4;stroke-dasharray:none;stroke-opacity:1" />
      <rect
         style="opacity:1;fill:#1e1e1e;fill-opacity:1;fill-rule:nonzero;stroke:none;stroke-width:0.00001131;stroke-linecap:round;stroke-miterlimit:4;stroke-dasharray:none;stroke-opacity:1"
         id="rect2418"
         width="0.0028840131"
         height="0.015403925"
         x="0.011502022"
         y="-470.9826" />
      <rect
         style="opacity:1;fill:#1e1e1e;fill-opacity:1;fill-rule:nonzero;stroke:none;stroke-width:0.00001131;stroke-linecap:round;stroke-miterlimit:4;stroke-dasharray:none;stroke-opacity:1"
         id="rect2422"
         width="0.0028840131"
         height="0.015403925"
         x="0.017636055"
         y="-470.9826" />
      <rect
         y="-470.9826"
         x="0.011502022"
         height="0.015403925"
         width="0.0028840131"
         id="rect5472"
         style="opacity:1;fill:#1e1e1e;fill-opacity:1;fill-rule:nonzero;stroke:none;stroke-width:0.00001131;stroke-linecap:round;stroke-miterlimit:4;stroke-dasharray:none;stroke-opacity:1" />
      <rect
         style="opacity:1;fill:#1e1e1e;fill-opacity:1;fill-rule:nonzero;stroke:none;stroke-width:0.00001131;stroke-linecap:round;stroke-miterlimit:4;stroke-dasharray:none;stroke-opacity:1"
         id="rect5825"
         width="0.0028840131"
         height="0.015403925"
         x="0.014548732"
         y="-470.9826" />
    </g>
  </g>
  <g
     inkscape:label="Layer 1"
     inkscape:groupmode="layer"
     id="layer1"
     transform="translate(0,-93.800007)"
     style="opacity:1">
    <flowRoot
       xml:space="preserve"
       id="flowRoot917"
       style="font-style:normal;font-variant:normal;font-weight:normal;font-stretch:normal;font-size:40px;line-height:1.25;font-family:Ubuntu;-inkscape-font-specification:Ubuntu;letter-spacing:0px;word-spacing:0px;fill:#000000;fill-opacity:1;stroke:none"
       transform="matrix(0.26458333,0,0,0.26458333,6.5572449,98.918784)"><flowRegion
         id="flowRegion919"
         style="font-style:normal;font-variant:normal;font-weight:normal;font-stretch:normal;font-family:Ubuntu;-inkscape-font-specification:Ubuntu"><rect
           id="rect921"
           width="49.999981"
           height="52.857128"
           x="633.57141"
           y="341.57144"
           style="font-style:normal;font-variant:normal;font-weight:normal;font-stretch:normal;font-family:Ubuntu;-inkscape-font-specification:Ubuntu" /></flowRegion><flowPara
         id="flowPara923"
         style="font-style:italic;font-variant:normal;font-weight:500;font-stretch:normal;font-family:Roboto;-inkscape-font-specification:'Roboto Medium Italic';fill:#686868;fill-opacity:1">CA</flowPara></flowRoot>    <path
       style="opacity:1;fill:url(#linearGradient2923);fill-opacity:1;fill-rule:nonzero;stroke:none;stroke-width:0.08586648;stroke-linecap:round;stroke-miterlimit:4;stroke-dasharray:none;stroke-opacity:1"
       d="m 180.71041,195.40001 c 17.18519,-9.92188 34.37038,-19.84375 51.55557,-29.76562 0,19.84375 0,39.6875 0,59.53125 -17.18519,-9.92187 -34.37038,-19.84375 -51.55557,-29.76563 z"
       id="path894"
       inkscape:connector-curvature="0" />
    <path
       style="opacity:1;fill:url(#linearGradient2905);fill-opacity:1;fill-rule:nonzero;stroke:none;stroke-width:0.08586649;stroke-linecap:round;stroke-miterlimit:4;stroke-dasharray:none;stroke-opacity:1"
       d="m 129.15483,165.63439 c 17.18519,9.92187 34.37039,19.84374 51.55558,29.76562 -17.18519,9.92188 -34.37039,19.84375 -51.55558,29.76563 0,-19.84375 0,-39.6875 0,-59.53125 z"
       id="path896"
       inkscape:connector-curvature="0" />
    <path
       style="opacity:1;fill:url(#linearGradient2917);fill-opacity:1;fill-rule:nonzero;stroke:none;stroke-width:0.08586649;stroke-linecap:round;stroke-miterlimit:4;stroke-dasharray:none;stroke-opacity:1"
       d="m 180.7104,135.86877 c 17.18519,9.92187 34.37039,19.84374 51.55558,29.76562 -17.18519,9.92188 -34.37039,19.84375 -51.55558,29.76563 0,-19.84375 0,-39.6875 0,-59.53125 z"
       id="path900"
       inkscape:connector-curvature="0" />
    <path
       style="opacity:1;fill:url(#linearGradient2911);fill-opacity:1;fill-rule:nonzero;stroke:none;stroke-width:0.08586648;stroke-linecap:round;stroke-miterlimit:4;stroke-dasharray:none;stroke-opacity:1"
       d="m 129.15483,165.63439 c 17.18519,-9.92187 34.37039,-19.84374 51.55558,-29.76562 0,19.84375 0,39.6875 0,59.53125 -17.18519,-9.92188 -34.37039,-19.84375 -51.55558,-29.76563 z"
       id="path898"
       inkscape:connector-curvature="0" />
    <path
       style="opacity:1;fill:url(#linearGradient2929);fill-opacity:1;fill-rule:nonzero;stroke:none;stroke-width:0.08586649;stroke-linecap:round;stroke-miterlimit:4;stroke-dasharray:none;stroke-opacity:1"
       d="m 180.71043,195.40002 c 17.18519,9.92187 34.37039,19.84374 51.55558,29.76562 -17.18519,9.92188 -34.37039,19.84375 -51.55558,29.76563 0,-19.84375 0,-39.6875 0,-59.53125 z"
       id="path902"
       inkscape:connector-curvature="0" />
    <path
       style="opacity:1;fill:#56ff00;fill-opacity:1;fill-rule:nonzero;stroke:none;stroke-width:0.08586648;stroke-linecap:round;stroke-miterlimit:4;stroke-dasharray:none;stroke-opacity:1"
       d="m 129.15487,225.16564 c 17.18518,-9.92188 34.37038,-19.84375 51.55557,-29.76562 0,19.84375 0,39.68749 0,59.53124 -17.18519,-9.92187 -34.37038,-19.84374 -51.55557,-29.76562 z"
       id="path904"
       inkscape:connector-curvature="0" />
    <path
       style="opacity:1;fill:#3c3c3c;fill-opacity:1;fill-rule:nonzero;stroke:none;stroke-width:0.15508419;stroke-linecap:round;stroke-miterlimit:4;stroke-dasharray:none;stroke-opacity:1"
       d="m 226.5376,168.94168 c 0,17.63889 0,35.27777 0,52.91666 -15.27573,8.81945 -30.55146,17.63889 -45.82718,26.45834 -15.27573,-8.81945 -30.55145,-17.63889 -45.82718,-26.45834 0,-17.63889 0,-35.27778 0,-52.91667 15.27573,-8.81944 30.55146,-17.63888 45.82718,-26.45833 15.27573,8.81945 30.55145,17.63889 45.82718,26.45834 z"
       id="path837"
       inkscape:connector-curvature="0" />
    <path
       style="opacity:1;fill:#282828;fill-opacity:1;fill-rule:nonzero;stroke:none;stroke-width:0.13569862;stroke-linecap:round;stroke-miterlimit:4;stroke-dasharray:none;stroke-opacity:1"
       d="m 220.8092,172.24897 c 0,15.43403 0,30.86805 0,46.30208 -13.36626,7.71702 -26.73252,15.43403 -40.09878,23.15105 -13.36626,-7.71702 -26.73252,-15.43403 -40.09878,-23.15105 0,-15.43403 0,-30.86805 0,-46.30208 13.36626,-7.71702 26.73252,-15.43403 40.09878,-23.15105 13.36626,7.71702 26.73252,15.43403 40.09878,23.15105 z"
       id="path884"
       inkscape:connector-curvature="0" />
    <path
       style="opacity:1;fill:url(#linearGradient922);fill-opacity:1;fill-rule:nonzero;stroke:none;stroke-width:0.08586648;stroke-linecap:round;stroke-miterlimit:4;stroke-dasharray:none;stroke-opacity:1"
       d="m 129.15483,165.63439 c 17.18519,-9.92187 34.37039,-19.84374 51.55558,-29.76562 0,19.84375 0,39.6875 0,59.53125 -17.18519,-9.92188 -34.37039,-19.84375 -51.55558,-29.76563 z"
       id="path1219"
       inkscape:connector-curvature="0" />
    <path
       style="opacity:1;fill:url(#linearGradient919);fill-opacity:1;fill-rule:nonzero;stroke:none;stroke-width:0.08586649;stroke-linecap:round;stroke-miterlimit:4;stroke-dasharray:none;stroke-opacity:1"
       d="m 180.7104,135.86877 c 17.18519,9.92187 34.37039,19.84374 51.55558,29.76562 -17.18519,9.92188 -34.37039,19.84375 -51.55558,29.76563 0,-19.84375 0,-39.6875 0,-59.53125 z"
       id="path1221"
       inkscape:connector-curvature="0" />
    <g
       id="g4080"
       transform="translate(7.5365551e-6,7.0935059e-6)">
      <path
         style="opacity:1;fill:url(#linearGradient2785);fill-opacity:1;fill-rule:nonzero;stroke:none;stroke-width:0.13998386;stroke-linecap:round;stroke-miterlimit:4;stroke-dasharray:none;stroke-opacity:1"
         d="m 180.71042,142.48334 c -15.27572,8.81944 -30.55145,17.63889 -45.82717,26.45833 15.27572,8.81945 30.55145,17.63889 45.82717,26.45834 15.27573,-8.81945 30.55145,-17.63889 45.82718,-26.45834 -15.27573,-8.81944 -30.55145,-17.63889 -45.82718,-26.45833 z"
         id="path957"
         inkscape:connector-curvature="0" />
      <path
         style="opacity:1;fill:url(#linearGradient2941);fill-opacity:1;fill-rule:nonzero;stroke:none;stroke-width:0.13998386;stroke-linecap:round;stroke-miterlimit:4;stroke-dasharray:none;stroke-opacity:1"
         d="m 226.53759,168.94167 c -15.27573,8.81945 -30.55145,17.63889 -45.82718,26.45834 0,17.63889 0,35.27777 0,52.91666 15.27573,-8.81944 30.55145,-17.63889 45.82718,-26.45833 0,-17.63889 0,-35.27778 0,-52.91667 z"
         id="path961"
         inkscape:connector-curvature="0" />
      <path
         style="opacity:1;fill:url(#linearGradient2947);fill-opacity:1;fill-rule:nonzero;stroke:none;stroke-width:0.13998386;stroke-linecap:round;stroke-miterlimit:4;stroke-dasharray:none;stroke-opacity:1"
         d="m 134.88324,168.94167 c 0,17.63889 0,35.27778 0,52.91667 15.27572,8.81944 30.55145,17.63889 45.82717,26.45833 0,-17.63889 0,-35.27777 0,-52.91666 -15.27572,-8.81945 -30.55145,-17.63889 -45.82717,-26.45834 z"
         id="path965"
         inkscape:connector-curvature="0" />
      <path
         style="opacity:1;fill:#424242;fill-opacity:1;fill-rule:nonzero;stroke:none;stroke-width:0.12248588;stroke-linecap:round;stroke-miterlimit:4;stroke-dasharray:none;stroke-opacity:1"
         d="m 180.71041,149.09792 c -13.36628,7.71701 -26.73256,15.43403 -40.09884,23.15104 0,15.43403 0,30.86806 0,46.30209 13.36628,-7.71701 26.73256,-15.43403 40.09884,-23.15104 0,-15.43403 0,-30.86806 0,-46.30209 z"
         id="path971"
         inkscape:connector-curvature="0" />
      <path
         style="opacity:1;fill:#232323;fill-opacity:1;fill-rule:nonzero;stroke:none;stroke-width:0.12248588;stroke-linecap:round;stroke-miterlimit:4;stroke-dasharray:none;stroke-opacity:1"
         d="m 180.71036,149.09793 c 0,15.43403 0,30.86805 0,46.30208 13.36628,7.71701 26.73256,15.43403 40.09884,23.15104 0,-15.43403 0,-30.86805 0,-46.30208 -13.36628,-7.71701 -26.73256,-15.43403 -40.09884,-23.15104 z"
         id="path975"
         inkscape:connector-curvature="0" />
      <path
         style="opacity:1;fill:#565656;fill-opacity:1;fill-rule:nonzero;stroke:none;stroke-width:0.12248588;stroke-linecap:round;stroke-miterlimit:4;stroke-dasharray:none;stroke-opacity:1"
         d="m 180.71041,195.40001 c -13.36628,7.71701 -26.73256,15.43403 -40.09884,23.15104 13.36628,7.71701 26.73256,15.43403 40.09884,23.15104 13.36628,-7.71701 26.73257,-15.43403 40.09885,-23.15104 -13.36628,-7.71701 -26.73257,-15.43403 -40.09885,-23.15104 z"
         id="path979"
         inkscape:connector-curvature="0" />
    </g>
    <path
       style="opacity:1;fill:#ff6800;fill-opacity:1;fill-rule:nonzero;stroke:none;stroke-width:0.05724432;stroke-linecap:round;stroke-miterlimit:4;stroke-dasharray:none;stroke-opacity:1"
       d="m 180.71041,195.40002 c -11.45679,6.61458 -22.91358,13.22917 -34.37038,19.84375 0,-13.22917 0,-26.45833 0,-39.6875 11.45679,6.61459 22.91359,13.22917 34.37038,19.84375 z"
       id="path855"
       inkscape:connector-curvature="0" />
    <path
       style="opacity:1;fill:#00a2ff;fill-opacity:1;fill-rule:nonzero;stroke:none;stroke-width:0.05724432;stroke-linecap:round;stroke-miterlimit:4;stroke-dasharray:none;stroke-opacity:1"
       d="m 215.08081,215.24377 c -11.45679,-6.61458 -22.91359,-13.22916 -34.37038,-19.84375 11.45679,-6.61459 22.91359,-13.22917 34.37038,-19.84375 10e-6,13.22917 0,26.45833 0,39.6875 z"
       id="path857"
       inkscape:connector-curvature="0" />
    <path
       style="opacity:1;fill:#ad00ff;fill-opacity:1;fill-rule:nonzero;stroke:none;stroke-width:0.05724432;stroke-linecap:round;stroke-miterlimit:4;stroke-dasharray:none;stroke-opacity:1"
       d="m 215.08082,215.24377 c -11.45679,6.61458 -22.91359,13.22916 -34.37038,19.84375 0,-13.22917 0,-26.45833 0,-39.6875 11.45679,6.61458 22.91359,13.22917 34.37038,19.84375 z"
       id="path859"
       inkscape:connector-curvature="0" />
    <path
       style="opacity:1;fill:#ff0000;fill-opacity:1;fill-rule:nonzero;stroke:none;stroke-width:0.05724432;stroke-linecap:round;stroke-miterlimit:4;stroke-dasharray:none;stroke-opacity:1"
       d="m 180.71044,235.08752 c -11.4568,-6.61458 -22.9136,-13.22916 -34.37039,-19.84375 11.45679,-6.61459 22.91359,-13.22917 34.37038,-19.84375 1e-5,13.22917 1e-5,26.45833 1e-5,39.6875 z"
       id="path861"
       inkscape:connector-curvature="0" />
    <path
       style="opacity:1;fill:#ffea00;fill-opacity:1;fill-rule:nonzero;stroke:none;stroke-width:0.05724432;stroke-linecap:round;stroke-miterlimit:4;stroke-dasharray:none;stroke-opacity:1"
       d="m 180.71042,195.40002 c -11.45679,-6.61458 -22.91359,-13.22916 -34.37038,-19.84375 11.45679,-6.61459 22.91359,-13.22917 34.37038,-19.84375 1e-5,13.22917 0,26.45833 0,39.6875 z"
       id="path863"
       inkscape:connector-curvature="0" />
    <path
       style="opacity:1;fill:#56ff00;fill-opacity:1;fill-rule:nonzero;stroke:none;stroke-width:0.05724432;stroke-linecap:round;stroke-miterlimit:4;stroke-dasharray:none;stroke-opacity:1"
       d="m 215.0808,175.55627 c -11.45679,6.61459 -22.91359,13.22917 -34.37039,19.84375 0,-13.22916 0,-26.45833 0,-39.68749 11.4568,6.61457 22.9136,13.22916 34.37039,19.84374 z"
       id="path865"
       inkscape:connector-curvature="0" />
    <g
       id="g1006"
       transform="translate(0,2e-5)">
      <path
         style="opacity:1;fill:#232323;fill-opacity:1;fill-rule:nonzero;stroke:none;stroke-width:0.09692746;stroke-linecap:round;stroke-miterlimit:4;stroke-dasharray:none;stroke-opacity:1"
         d="m 152.06843,211.93645 c 0,-11.02431 0,-22.04861 0,-33.07292 9.54733,-5.51215 19.09466,-11.0243 28.64199,-16.53645 9.54733,5.51215 19.09466,11.0243 28.64199,16.53646 0,11.0243 0,22.04861 0,33.07291 -9.54733,5.51216 -19.09466,11.02431 -28.64199,16.53646 -9.54733,-5.51215 -19.09466,-11.0243 -28.64199,-16.53646 z"
         id="path910"
         inkscape:connector-curvature="0" />
      <path
         style="opacity:1;fill:#565656;fill-opacity:1;fill-rule:nonzero;stroke:none;stroke-width:0.08748992;stroke-linecap:round;stroke-miterlimit:4;stroke-dasharray:none;stroke-opacity:1"
         d="m 180.71041,162.32709 c -9.54739,5.51215 -19.09478,11.02431 -28.64218,16.53646 9.5474,5.51215 19.09479,11.0243 28.64218,16.53646 9.54739,-5.51216 19.09479,-11.02431 28.64218,-16.53646 -9.54739,-5.51215 -19.09478,-11.02431 -28.64218,-16.53646 z"
         id="path945"
         inkscape:connector-curvature="0" />
      <path
         style="opacity:1;fill:#424242;fill-opacity:1;fill-rule:nonzero;stroke:none;stroke-width:0.08748992;stroke-linecap:round;stroke-miterlimit:4;stroke-dasharray:none;stroke-opacity:1"
         d="m 209.35259,178.86355 c -9.54739,5.51215 -19.09479,11.0243 -28.64218,16.53646 0,11.0243 0,22.04861 0,33.07291 9.5474,-5.51215 19.09479,-11.0243 28.64218,-16.53646 0,-11.0243 0,-22.04861 0,-33.07291 z"
         id="path949"
         inkscape:connector-curvature="0" />
    </g>
    <text
       xml:space="preserve"
       style="font-style:normal;font-variant:normal;font-weight:normal;font-stretch:normal;font-size:9.55422211px;line-height:11.94277763px;font-family:Ubuntu;-inkscape-font-specification:Ubuntu;letter-spacing:0px;word-spacing:0px;opacity:1;fill:#6a6a6a;fill-opacity:1;stroke:none;stroke-width:0.35828331"
       x="1422.0574"
       y="283.07532"
       id="text1139-3"><tspan
         sodipodi:role="line"
         x="319.31003"
         y="283.07532"
         id="tspan1137-6"
         style="text-align:center;text-anchor:middle;stroke-width:0.35828331"><tspan
           x="319.31003"
           y="283.07532"
           style="font-style:normal;font-variant:normal;font-weight:300;font-stretch:normal;line-height:11.94277763px;font-family:Roboto;-inkscape-font-specification:'Roboto Light';text-align:center;text-anchor:middle;fill:#6a6a6a;fill-opacity:1;stroke-width:0.35828331"
           id="tspan1135-7"><tspan
             style="text-align:center;text-anchor:middle;fill:#ff0000;fill-opacity:1"
             id="tspan2757">C</tspan><tspan
             style="text-align:center;text-anchor:middle;fill:#ff6800;fill-opacity:1"
             id="tspan2759">o</tspan><tspan
             style="text-align:center;text-anchor:middle;fill:#ffea00;fill-opacity:1"
             id="tspan2761">r</tspan><tspan
             style="text-align:center;text-anchor:middle;fill:#56ff00;fill-opacity:1"
             id="tspan2763">r</tspan><tspan
             style="text-align:center;text-anchor:middle;fill:#00a2ff;fill-opacity:1"
             id="tspan2765">u</tspan><tspan
             style="text-align:center;text-anchor:middle;fill:#ad00ff;fill-opacity:1"
             id="tspan2767">p</tspan><tspan
             style="text-align:center;text-anchor:middle;fill:#ff0000;fill-opacity:1"
             id="tspan2769">t</tspan><tspan
             style="text-align:center;text-anchor:middle;fill:#ff6800;fill-opacity:1"
             id="tspan2773">e</tspan><tspan
             style="text-align:center;text-anchor:middle;fill:#ffea00;fill-opacity:1"
             id="tspan2967">d</tspan><tspan
             style="text-align:center;text-anchor:middle;fill:#56ff00;fill-opacity:1"
             id="tspan2969">A</tspan><tspan
             style="text-align:center;text-anchor:middle;fill:#00a2ff;fill-opacity:1"
             id="tspan2971">r</tspan><tspan
             style="text-align:center;text-anchor:middle;fill:#ad00ff;fill-opacity:1"
             id="tspan2973">k</tspan></tspan></tspan></text>
  </g>
</svg>
